Patient4_TMGait_0pt6_02_left_26_EMG.mot
version=1
nRows=27
nColumns=33
inDegrees=no
endheader
time	1LAddLong	2LGlutMax	3LGlutMed	4LIliopsoas	5LSemiMemb	6LBicFemLong	7LRecFem	8LVastMed	9LVastLat	10LGasMed	11LTibAnt	12lTibPost	13LPeroneusLong	14LSol	15LExtDigLong	16LFlexDigLong	17RAddLong	18RGlutMax	19RGlutMed	20RIliopsoas	21RSemiMemb	22RBicFemLong	23RRecFem	24RVastMed	25RVastLat	26RGasMed	27RTibAnt	28RTibPost	29RPeroneusLong	30RSol	31RExtDigLong	32RFlexDigLong
32.237	0.080109	-0.2948	-0.024109	-0.032501	0.004272	-0.15305	-0.44586	0.006866	0.29846	-0.088196	-0.19959	0.007477	0.36316	0.16769	-0.2243	0.006409	-0.003662	0.05249	-0.96542	0.17014	0.002441	0.035095	0.3627	-0.016174	-0.02121	-0.027466	0.037231	0.29617	-0.75119	-1.3156	0.002899	-0.018921
32.238	0.06073	-0.31036	-0.026703	0.001221	-0.074463	-0.18097	-0.43716	0.026245	0.271	-0.014648	-0.063324	0	0.097504	-0.2504	-0.002594	-0.004425	0.12085	0.085602	-1.0376	0.17227	-0.00885	0.027161	0.68298	0.001831	-0.044098	-0.027161	0.021057	-0.061188	0.30563	-0.97931	0	-0.011444
32.239	0.035248	-0.27222	-0.048218	0.02243	-0.15564	-0.032196	-0.50507	0.034943	0.2066	-0.046997	-0.077057	-0.008698	0.42252	-0.51086	0.11948	-0.010223	0.16647	0.0737	-1.0252	0.043945	-0.021973	0.021362	0.75409	-0.054169	-0.053711	0.021515	0.019989	-0.3923	1.2698	-0.15503	-0.001221	-0.012512
32.24	0.040894	-0.21469	0.005646	0.007935	-0.12253	-0.055542	-0.60379	0.041046	0.11627	-0.06485	-0.12787	-0.008087	0.1648	-0.37369	0.42999	-0.00946	0.12817	0.061646	-1.0382	-0.00824	-0.043335	-0.007782	0.57678	-0.059814	-0.046082	0.076599	-0.10239	0.32684	2.5093	0.6987	-0.001678	-0.005035
32.241	0.029907	-0.1767	-0.041962	0.007935	-0.088196	-0.12528	-0.54642	0.014954	0.069122	-0.025787	-0.050964	-0.014954	-0.2063	-0.13626	0.5809	-0.002594	0.12482	0.10483	-1.163	0.014343	-0.04837	0.003357	0.50461	-0.068054	-0.053101	0.078583	-0.026398	0.14435	1.1862	0.63156	-0.005493	0.001526
32.242	0.024567	-0.10025	-0.075989	0.003662	-0.080872	0.042725	-0.59143	-0.028076	0.040588	0.000305	-0.061493	-0.028687	0.4184	-0.015411	0.26443	-0.010376	0.061798	0.12543	-1.2735	0.035706	-0.046387	-0.001678	0.5275	-0.003357	0.001831	0.022736	0.10773	0.2507	0.65033	0.11246	-0.002441	-0.001831
32.243	0.023956	-0.045013	-0.050049	-0.003662	-0.082703	0.14206	-0.60791	-0.047607	-0.006866	0.068817	0.023804	-0.034637	-0.383	0.020142	-0.009766	-0.012054	-0.038757	0.12756	-1.2662	0.074921	-0.059967	0.020142	0.62164	0.045929	-0.002441	-0.019531	0.11871	0.079956	0.65109	-0.9137	-0.004272	-0.010071
32.244	0.010071	0.00061	-0.081024	-0.004272	-0.058594	0.025024	-0.35812	-0.038757	0.14862	0.064392	0.074615	-0.034027	-0.73944	-0.19073	-0.31616	-0.00351	-0.11932	0.065765	-1.3303	0.046234	-0.067596	0.05661	0.50095	0.085602	0.028839	0.037689	-0.028381	-0.50674	0.91873	-1.0059	-0.003357	-0.010071
32.245	-0.016785	0.011902	-0.14954	0.007324	-0.071411	0.021667	-0.17303	-0.014496	0.28763	0.011749	0.018768	-0.05127	-0.70755	-0.33127	-0.15366	-0.007477	-0.10529	0.002136	-1.3852	-0.019073	-0.034943	0.076599	0.52139	0.094757	0.041046	0.062408	-0.11566	0.003357	0.53299	0.30533	0.00061	-0.004425
32.246	-0.016174	0.032043	-0.21606	0.00412	-0.097046	0.001831	-0.11643	0.006256	0.26321	-0.019073	0.039978	-0.037537	0.18326	-0.27924	0.1442	0.000305	-0.031281	-0.032654	-1.3228	-0.007935	-0.016174	0.085754	0.49988	0.095367	0.071259	0.055847	-0.12009	-0.24429	-1.1234	0.35797	-0.000458	-0.005341
32.247	-0.019836	0.019989	-0.044861	-0.012665	-0.11292	-0.090332	-0.1059	0.027771	0.14496	0.027771	0.12146	-0.037842	0.51117	-0.16647	0.17288	-0.007172	0.003967	0.026245	-1.2856	-0.003815	0.015259	0.11307	0.43808	0.14557	0.045013	-0.010223	0.002289	-0.29098	-1.5764	-0.10178	-0.003052	-0.005493
32.248	-0.015564	0.11765	0.05127	-0.004425	-0.097504	-0.14587	-0.20721	0.017395	-0.004883	0.10666	0.12756	-0.024261	0.69458	-0.16098	0.38666	0.001831	0.007935	0.06546	-1.1658	0.046539	0.02594	0.1239	0.45502	0.12985	0.018005	-0.072174	0.10346	0.16068	-1.2503	-0.92163	-0.004272	-0.015106
32.249	0.005035	0.18448	0.064697	-0.008698	-0.063782	-0.20218	-0.31235	-0.003815	-0.11398	0.1236	0.075836	-0.044098	0.49377	-0.084076	0.47028	0.007324	-0.036469	-0.001068	-1.3249	0.099487	0.021362	0.10819	0.39505	0.11673	0.006409	-0.048065	0.049438	0.50339	0.45853	-1.2421	-0.000916	-0.020294
32.25	-0.011444	0.27145	0.10315	0.001678	-0.038757	-0.11459	-0.31479	-0.024872	-0.066528	0.075836	0.1149	-0.026703	0.1506	0.020142	0.5072	0.018311	-0.084991	-0.008545	-1.1505	0.050201	0.038605	0.11948	0.40985	0.071259	0.003204	-0.034332	0.039673	0.10254	0.75058	-1.0997	-0.002441	-0.022278
32.251	-0.019989	0.36453	0.13687	0.008087	-0.015564	-0.021515	-0.38925	-0.027924	0.044403	-0.003357	0.012817	-0.014038	0.56961	0.16907	0.47943	0.006104	-0.11673	-0.048676	-1.2602	0.028839	0.050507	0.11078	0.50491	0.097809	0.005035	0.019531	-0.014648	-0.3685	0.78842	-0.57526	-0.006409	-0.009613
32.252	-0.024719	0.46158	0.048676	0.006714	0.00351	-0.004272	-0.44708	-0.007782	0.098419	-0.057068	-0.1355	-0.028992	-0.33752	0.07843	0.24155	0.014496	-0.10468	-0.088043	-1.1514	-0.047455	0.058746	0.10437	0.61829	0.11139	0.008087	0.019836	-0.11246	0.14725	0.57175	-0.23331	-0.002136	-0.002289
32.253	-0.027466	0.55435	-0.060272	-0.021057	-0.018921	-0.018005	-0.34927	0.00824	0.1561	-0.088501	0.019836	-0.021667	-0.66589	-0.1149	0.49957	0.029144	-0.085602	-0.074158	-0.96146	-0.059204	0.061188	0.099945	0.59113	0.15808	0.023193	-0.030518	-0.17425	0.55985	0.22247	1.1444	-0.002441	0.010834
32.254	-0.031281	0.62759	-0.076294	-0.011139	-0.090942	-0.030975	-0.22385	0.017395	0.11658	-0.080719	0.053253	-0.014801	-0.77194	-0.17899	-0.010071	0.01358	0.011292	-0.098877	-0.81772	-0.007477	0.063629	0.096283	0.40985	0.15167	0.00946	-0.038605	-0.19882	0.28717	0.47318	2.1869	-0.005035	0.015411
32.255	-0.032349	0.7309	-0.091095	-0.005035	-0.17578	0.016022	-0.168	-0.004425	0.15686	-0.083771	-0.17563	-0.021515	-0.21454	-0.12634	-0.56366	0.005493	0.06073	-0.12146	-0.77835	0.049744	0.056915	0.084839	0.32837	0.12711	0.014801	-0.086212	-0.15945	0.006714	0.1857	0.75913	-0.001831	0.003662
32.256	-0.028381	0.81177	-0.061493	-0.009308	-0.28519	0.26276	-0.19379	0.000153	0.15305	-0.058746	-0.17792	-0.01236	0.42969	0.10422	-0.79071	-0.010834	0.001221	-0.11612	-0.71045	0.060425	0.024261	0.065613	0.34897	0.081024	-0.012817	-0.066376	-0.067444	-0.072479	0.48691	0.51239	-0.001221	0.001526
32.257	-0.04425	0.85724	-0.14618	-0.002441	-0.38528	0.51178	-0.12268	-0.010376	0.1973	-0.028534	-0.16037	-0.008545	0.14603	0.27237	-0.67856	-0.002747	-0.021057	-0.18204	-0.67291	0.086975	0.003357	0.047455	0.2858	0.045471	0.015869	-0.036621	-0.035095	-0.045471	1.1082	0.69427	-0.002899	-0.013733
32.258	-0.020752	0.84686	-0.14099	-0.003052	-0.28976	0.40817	-0.10239	-0.018921	0.27237	0.005798	-0.10544	-0.00885	0.065918	0.11826	-0.43427	-0.010529	-0.055084	-0.13931	-0.61722	0.052795	-0.005951	0.043945	0.17975	0.028381	0.016174	-0.038757	0.064697	-0.1088	-0.018158	0.89844	-0.002289	-0.006409
32.259	0.026245	0.905	-0.12863	-0.011444	-0.093231	0.21301	-0.08667	-0.011444	0.28839	0.014038	0.032349	-0.012512	0.19424	-0.050812	-0.522	-0.010376	-0.083466	-0.19714	-0.6102	0.11597	-0.005341	0.071106	0.13825	0.014648	0.012817	-0.055847	0.13138	-0.13428	-0.50064	0.98434	-0.003815	0.001678
32.26	0.068054	0.94238	-0.12085	-0.010529	-0.006104	0.027924	-0.13428	-0.015106	0.30258	-0.012512	0.20828	-0.000763	0.34531	-0.019989	-0.085449	-0.006104	-0.10132	-0.18738	-0.55618	0.093536	0.009308	0.10071	-0.00824	0.054474	0.014496	-0.084686	0.13886	0.36163	0.55527	1.74	-0.002747	0.006714
32.261	0.067444	0.99075	-0.19043	-0.022583	0.14435	-0.21988	-0.14587	0.010681	0.26382	-0.033417	0.40283	-0.002594	-0.35461	-0.030823	0.34454	0.012817	-0.012817	-0.20126	-0.48889	-0.067139	0.026245	0.09903	-0.022888	0.071106	0.034485	-0.02121	0.029449	0.15854	0.97534	1.9334	-0.001984	0.020599
32.262	0.06546	1.0739	-0.16068	0.013275	0.27237	-0.19287	-0.12131	0.034027	0.21393	-0.042114	0.18387	-0.00351	-0.096588	0.064392	0.52261	0.006256	0.077667	-0.24582	-0.45013	-0.18219	0.033264	0.084229	0.011444	0.06485	0.053711	0.016174	-0.018768	-0.41077	0.64636	0.65796	-0.00351	0.024109
32.263	0.064392	1.1568	-0.21103	0.043335	0.23514	-0.21851	-0.10788	0.041809	0.1889	-0.089874	-0.09964	0.00061	0.60608	0.1033	0.215	-0.005951	0.15717	-0.24307	-0.31799	-0.15106	0.038757	0.072937	0.057831	0.026093	0.037842	0.041199	-0.010071	-0.1239	-0.27863	-0.53101	-0.001526	0.018005
